<?xml version="1.0" standalone="no"?>
<!DOCTYPE svg PUBLIC "-//W3C//DTD SVG 20010904//EN"
 "http://www.w3.org/TR/2001/REC-SVG-20010904/DTD/svg10.dtd">
<svg version="1.0" xmlns="http://www.w3.org/2000/svg"
 width="500.000000pt" height="500.000000pt" viewBox="0 0 500.000000 500.000000"
 preserveAspectRatio="xMidYMid meet">
<metadata>
Created by potrace 1.14, written by Peter Selinger 2001-2017
</metadata>
<g transform="translate(0.000000,500.000000) scale(0.100000,-0.100000)"
fill="#000000" stroke="none">
<path d="M0 2500 l0 -2500 2500 0 2500 0 0 2500 0 2500 -2500 0 -2500 0 0
-2500z m948 5 c1 -305 -1 -492 -7 -498 -7 -7 -16 -6 -26 3 -13 11 -15 72 -15
489 0 480 2 509 35 498 7 -3 11 -166 13 -492z m3036 489 c14 -5 16 -58 16
-494 0 -437 -2 -488 -16 -494 -9 -3 -20 -4 -25 0 -10 6 -13 977 -2 987 8 8 8
8 27 1z m-2452 -469 c59 -165 110 -308 114 -317 5 -16 -2 -18 -50 -18 l-55 0
-22 70 -23 70 -131 0 -131 0 -23 -70 -22 -70 -56 0 c-40 0 -54 3 -50 13 2 6
50 138 105 292 55 154 105 293 111 308 10 27 14 28 68 25 l57 -3 108 -300z
m440 163 l3 -142 118 142 119 142 66 0 66 0 -25 -27 c-21 -23 -155 -179 -227
-266 -14 -15 -11 -22 25 -65 21 -26 83 -100 137 -164 l97 -118 -68 1 -68 0
-120 149 -120 149 -3 -150 -3 -149 -49 0 -50 0 0 320 0 320 50 0 49 0 3 -142z
m852 -102 l131 -239 3 242 2 241 55 0 55 0 0 -320 0 -321 -66 3 -66 3 -132
239 -131 239 -3 -242 -2 -241 -55 0 -55 0 0 320 0 321 66 -3 66 -3 132 -239z
m910 -63 c60 -170 111 -314 114 -320 3 -9 -11 -13 -50 -13 l-54 0 -23 70 -22
71 -131 -3 -130 -3 -25 -67 -25 -68 -54 0 -53 0 13 38 c8 20 57 159 110 307
53 149 98 276 101 283 3 8 25 12 62 12 l58 0 109 -307z"/>
<path d="M1316 2573 c-25 -76 -46 -141 -46 -146 0 -4 43 -7 95 -7 52 0 95 4
95 8 0 10 -88 274 -94 279 -2 2 -25 -58 -50 -134z"/>
<path d="M3521 2577 c-24 -72 -46 -138 -48 -144 -4 -10 18 -13 91 -13 70 0 96
3 96 12 0 17 -81 261 -89 270 -4 4 -26 -52 -50 -125z"/>
</g>
</svg>
